<svg xmlns="http://www.w3.org/2000/svg" viewBox="0 0 106.18 101.88"><defs><style>.cls-1{fill:#fff;}.cls-2{fill:#9d9d9c;}</style></defs><g id="Laag_2" data-name="Laag 2"><g id="Laag_1-2" data-name="Laag 1"><g id="nRQeqi"><path class="cls-1" d="M106,101.88c.06-1.23.17-2.2.14-3.16-.49-18.32-16-38.39-33.86-43.56a8.32,8.32,0,0,0-5.09.64C59.23,59.2,50.79,60.66,43,57c-7.1-3.37-12.73-1.4-18,2.43-5.71,4.18-11.43,8.78-15.79,14.27A41.52,41.52,0,0,0,0,101.88ZM53.08,0A27.18,27.18,0,0,0,26,26.93c-.16,14.53,12.3,27,27,27a27,27,0,0,0,0-54Z"/><path class="cls-2" d="M106,101.88H0A41.52,41.52,0,0,1,9.21,73.65C13.57,68.16,19.29,63.56,25,59.38c5.24-3.83,10.87-5.8,18-2.43,7.82,3.71,16.26,2.25,24.25-1.15a8.32,8.32,0,0,1,5.09-.64c17.85,5.17,33.37,25.24,33.86,43.56C106.2,99.68,106.09,100.65,106,101.88Z"/><path class="cls-2" d="M53.08,0a27,27,0,0,1,0,54c-14.74,0-27.2-12.51-27-27A27.18,27.18,0,0,1,53.08,0Z"/></g></g></g></svg>