<svg xmlns="http://www.w3.org/2000/svg" viewBox="0 0 181.83 143.67"><defs><style>.cls-1{fill:#9d9d9c;}</style></defs><g id="Laag_2" data-name="Laag 2"><g id="Laag_1-2" data-name="Laag 1"><g id="qO8fhR"><path class="cls-1" d="M76.43,100.5v43.16H74.25c-13.53,0-27.06,0-40.59,0A7.34,7.34,0,0,1,26,136.24c-.1-17.49,0-35-.08-52.47,0-2.25,1.86-2.87,3.1-3.93,4.49-3.82,9.1-7.5,13.67-11.23q7.5-6.12,15-12.22c3.78-3.09,7.51-6.23,11.3-9.32C74,43,79,39,84,34.91,86.36,33,88.65,31.07,91,29.13c4.63,3.82,9.12,7.56,13.64,11.26,5.7,4.64,11.45,9.23,17.14,13.89,4.43,3.62,8.78,7.35,13.22,11,5.68,4.66,11.42,9.25,17.13,13.87a14.92,14.92,0,0,1,2.45,2.15,4.87,4.87,0,0,1,1.18,2.63q.11,26.32.05,52.65a7.07,7.07,0,0,1-6.77,7.1c-14.08,0-28.16,0-42.24,0-.29,0-.58-.05-1.06-.1v-2.22c0-12.86,0-25.72,0-38.58,0-1.74-.46-2.31-2.25-2.29-8.35.09-16.7,0-25,0Z"/><path class="cls-1" d="M127.29,25.9V8.61c0-1.52,0-3,0-4.57,0-2.29,1.22-3.67,3.52-3.69q10.69-.09,21.39,0c2.39,0,3.58,1.38,3.58,3.81,0,14.57,0,29.13,0,43.69a3.8,3.8,0,0,0,1.63,3.21c4.62,3.78,9.25,7.54,13.85,11.34,3,2.5,6.05,5,9,7.57,1.87,1.63,2.12,3.36.62,5.24-2.18,2.73-4.48,5.38-6.83,8-1.6,1.75-3.28,1.77-5.11.26q-10.66-8.81-21.32-17.64L124.19,46.4,98.58,25.18C96,23.08,93.48,21,91,19,82.44,26,74,32.85,65.69,39.77c-5.39,4.46-10.7,9-16.09,13.48-6.69,5.53-13.44,11-20.13,16.52q-8,6.63-15.93,13.37c-2.23,1.89-4.47,1.6-6.32-.76S3.09,77.49,1.06,75c-1.47-1.8-1.44-3.34.3-4.88,3.08-2.71,6.26-5.3,9.42-7.92s6.53-5.35,9.78-8q5.88-4.81,11.73-9.65l11.42-9.47L57.47,23.63,69.2,14C74,10.06,78.57,6,83.5,2.31,88-1.07,95-.66,99.41,3c5.39,4.46,10.82,8.86,16.2,13.32,3.21,2.65,6.36,5.37,9.56,8.05C125.71,24.82,126.31,25.2,127.29,25.9Z"/></g></g></g></svg>