<svg xmlns="http://www.w3.org/2000/svg" xmlns:xlink="http://www.w3.org/1999/xlink" viewBox="0 0 656.7 656.7"><defs><style>.cls-1{fill:url(#Naamloos_verloop_5);}.cls-2{fill:#fff;}</style><linearGradient id="Naamloos_verloop_5" y1="328.35" x2="656.7" y2="328.35" gradientUnits="userSpaceOnUse"><stop offset="0" stop-color="#36a9e1"/><stop offset="1" stop-color="#29235c"/></linearGradient></defs><g id="Laag_2" data-name="Laag 2"><g id="Laag_1-2" data-name="Laag 1"><circle class="cls-1" cx="328.35" cy="328.35" r="328.35"/><path class="cls-2" d="M567.48,315.44H348.55a7.29,7.29,0,0,1-7.29-7.29V89.22a7.29,7.29,0,0,0-7.3-7.29H322.73a7.29,7.29,0,0,0-7.29,7.29V308.15a7.29,7.29,0,0,1-7.29,7.29H89.22a7.29,7.29,0,0,0-7.29,7.29V334a7.29,7.29,0,0,0,7.29,7.3H308.15a7.29,7.29,0,0,1,7.29,7.29V567.48a7.29,7.29,0,0,0,7.29,7.29H334a7.3,7.3,0,0,0,7.3-7.29V348.55a7.29,7.29,0,0,1,7.29-7.29H567.48a7.3,7.3,0,0,0,7.29-7.3V322.73A7.29,7.29,0,0,0,567.48,315.44Z"/></g></g></svg>